<!--?xml version="1.0" encoding="UTF-8"?-->
<svg xmlns="http://www.w3.org/2000/svg" width="512" height="217" viewBox="0 0 512 217" role="img" aria-label="Tekno Parrot logo">
  <g transform="translate(38.4 16.275) scale(0.85)">
  <path d="M 4.88 0.00 L 0.00 73.00 L 30.00 72.75 L 22.88 163.50 L 84.50 153.00 L 84.88 216.88 L 427.00 216.88 L 426.88 170.75 L 434.88 169.75 L 435.38 154.00 L 467.38 161.00 L 487.50 161.00 L 502.75 152.88 L 511.00 140.38 L 511.88 111.88 L 504.00 28.38 L 498.88 17.12 L 488.75 7.00 L 475.25 0.88 Z
  M 12.00 8.75 L 474.12 9.00 L 488.50 17.12 L 496.88 31.62 L 504.75 118.12 L 503.88 137.50 L 496.38 148.00 L 484.00 153.88 L 428.62 146.12 L 428.00 161.75 L 419.00 163.38 L 417.88 210.12 L 92.88 209.88 L 91.50 143.88 L 31.00 153.25 L 37.88 64.75 L 7.88 64.12 Z
  M 394.25 26.25 L 389.88 32.12 L 389.25 42.25 L 392.00 76.25 L 393.00 107.88 L 394.00 115.25 L 397.12 120.62 L 401.25 123.88 L 408.38 126.88 L 442.00 132.12 L 474.88 138.75 L 480.12 138.75 L 486.62 135.88 L 489.00 132.62 L 489.38 124.00 L 488.88 112.38 L 485.12 79.25 L 483.75 47.38 L 481.88 35.50 L 477.75 28.38 L 473.25 25.00 L 466.38 23.38 L 403.12 23.38 L 399.25 24.00 Z
  M 287.00 30.75 L 256.25 30.12 L 236.62 51.62 L 235.75 30.50 L 210.88 30.25 L 209.00 84.38 L 249.38 53.00 L 270.88 42.12 L 203.38 91.00 L 198.12 93.25 L 150.88 94.25 L 152.12 81.25 L 195.38 79.00 L 195.50 62.00 L 153.12 63.38 L 153.12 49.50 L 196.25 47.88 L 204.75 31.12 L 129.12 31.12 L 126.12 36.12 L 122.12 115.88 L 195.62 109.75 L 203.75 90.88 L 208.00 90.00 L 209.50 101.88 L 256.88 64.75 Z
  M 374.88 31.62 L 297.50 30.38 L 296.62 37.75 L 299.88 39.25 L 268.75 59.25 L 237.88 85.62 L 195.25 113.88 L 206.88 108.62 L 222.25 108.88 L 235.62 99.00 L 236.50 89.12 L 243.38 93.12 L 259.62 79.38 L 255.50 72.00 L 295.75 43.50 L 297.00 53.38 L 300.38 53.12 L 300.25 55.00 L 273.88 71.88 L 246.75 94.88 L 211.88 118.12 L 227.62 109.25 L 235.38 108.62 L 236.12 104.00 L 246.00 97.25 L 261.62 109.00 L 292.62 109.50 L 264.75 81.62 L 295.62 59.12 L 298.25 109.00 L 325.75 110.75 L 325.75 47.75 L 348.38 49.25 L 351.38 112.38 L 378.50 115.62 Z
  M 27.62 23.38 L 26.12 24.50 L 24.25 46.88 L 24.88 48.00 L 52.38 47.00 L 54.50 48.00 L 48.00 134.25 L 50.88 135.00 L 79.38 129.75 L 80.75 128.38 L 86.25 46.62 L 87.25 45.88 L 116.38 44.62 L 118.00 30.50 L 116.88 24.38 L 115.25 23.25 Z
  M 324.75 135.25 L 322.88 137.12 L 321.12 140.88 L 321.12 188.38 L 322.88 191.62 L 325.75 193.75 L 328.25 194.12 L 360.12 194.25 L 364.50 193.88 L 366.38 192.75 L 367.88 191.25 L 369.25 188.12 L 369.12 140.62 L 367.75 137.25 L 365.50 135.12 L 362.25 134.12 L 328.12 134.12 Z
  M 271.50 134.50 L 270.75 136.00 L 271.00 193.50 L 272.25 194.25 L 287.00 193.75 L 287.00 147.62 L 287.88 147.00 L 299.88 147.00 L 301.62 148.38 L 301.50 157.25 L 300.50 158.00 L 290.00 158.25 L 290.00 169.75 L 301.62 193.88 L 303.25 194.62 L 317.75 194.25 L 317.88 192.50 L 307.00 169.88 L 307.62 168.12 L 311.12 168.25 L 314.88 167.12 L 316.75 165.62 L 318.62 162.12 L 318.75 140.75 L 316.75 136.62 L 314.88 135.00 L 311.88 134.12 Z
  M 221.38 134.25 L 220.50 135.62 L 220.88 193.88 L 235.12 194.25 L 236.88 193.38 L 236.12 148.38 L 237.88 147.00 L 250.00 147.00 L 251.00 148.25 L 250.75 157.75 L 239.38 158.38 L 239.00 168.50 L 251.38 194.12 L 267.00 194.38 L 267.62 192.88 L 256.38 169.38 L 257.50 168.12 L 263.62 167.62 L 267.75 163.38 L 268.25 141.50 L 266.75 137.25 L 264.62 135.12 L 261.25 134.12 Z
  M 151.25 134.88 L 148.50 134.12 L 108.88 134.12 L 107.75 135.38 L 107.62 192.75 L 108.25 194.00 L 122.25 194.25 L 124.00 193.50 L 124.00 169.88 L 125.00 168.25 L 147.88 168.25 L 150.75 167.62 L 153.75 165.25 L 154.88 163.50 L 155.50 159.75 L 155.38 141.12 L 154.75 138.38 L 153.00 136.12 Z
  M 180.00 133.88 L 178.12 137.50 L 158.12 193.50 L 158.88 194.00 L 173.62 194.00 L 174.38 193.38 L 187.00 158.12 L 188.62 155.62 L 196.62 180.62 L 195.25 181.25 L 185.62 181.12 L 184.00 182.00 L 184.00 193.50 L 184.75 194.00 L 217.12 193.88 L 217.62 192.75 L 197.50 134.38 L 196.50 133.62 Z
  M 424.50 46.88 L 437.88 47.00 L 448.12 47.62 L 449.50 48.88 L 451.88 77.25 L 451.88 82.50 L 452.88 91.75 L 453.12 100.25 L 454.12 108.75 L 453.62 109.88 L 450.50 109.88 L 446.88 109.00 L 428.62 106.62 L 427.75 105.50 L 423.75 47.62 Z
  M 372.50 134.12 L 371.50 136.00 L 371.62 145.50 L 372.25 146.75 L 386.38 146.88 L 387.00 147.62 L 387.12 193.75 L 388.38 194.62 L 402.38 194.50 L 403.75 193.25 L 403.50 148.12 L 404.38 146.88 L 411.25 146.88 L 412.25 146.25 L 412.62 145.00 L 412.62 135.62 L 411.12 134.38 Z
  M 339.75 147.12 L 350.75 147.12 L 351.88 148.12 L 351.62 180.25 L 350.75 181.00 L 339.62 181.00 L 338.75 180.12 L 338.62 148.25 Z
  M 124.12 147.88 L 125.12 147.12 L 137.38 147.12 L 138.12 148.00 L 138.00 157.50 L 137.38 158.00 L 124.00 157.12 Z" fill="#ffffff" fill-rule="evenodd"></path>
  </g>
</svg>
